<svg xmlns="http://www.w3.org/2000/svg" viewBox="54 26 533 238" width="533" height="238" role="img" aria-label="Ottenser Adventskalender">
<title>Ottenser Adventskalender</title>
<rect x="504.04" y="69.36" width="11.76" height="28.64" fill="#d22b25"/>
<rect x="515.80" y="69.36" width="11.76" height="28.64" fill="#f0f0ef"/>
<rect x="527.56" y="69.36" width="11.76" height="28.64" fill="#d22b25"/>
<rect x="539.32" y="69.36" width="11.76" height="28.64" fill="#f0f0ef"/>
<rect x="551.08" y="69.36" width="11.76" height="28.64" fill="#d22b25"/>
<rect x="562.84" y="69.36" width="11.76" height="28.64" fill="#f0f0ef"/>
<path d="M532.26,98 Q539.32,75.08 546.38,98 Z" fill="#1f3c8e"/>
<path d="M539.3199999999999,45.92 L581.3199999999999,69.356 L497.31999999999994,69.356 Z" fill="#d22b25"/>
<path d="M539.3199999999999,45.92 L553.60,69.356 L525.04,69.356 Z" fill="#f0f0ef"/>
<path d="M497.31999999999994,69.356 q8.40,7.56 16.80,0 q8.40,7.56 16.80,0 q8.40,7.56 16.80,0 q8.40,7.56 16.80,0 q8.40,7.56 16.80,0 Z" fill="#f0a340"/>
<line x1="539.3199999999999" y1="45.92" x2="539.3199999999999" y2="31.34" stroke="#1f3c8e" stroke-width="2.10" stroke-linecap="round"/>
<path d="M539.3199999999999,31.34 l16.80,3.65 l-16.80,3.65 Z" fill="#29a9dd"/>
<path d="M101.59200000000001 150.56Q101.59200000000001 156.064 103.12800000000001 159.45600000000002Q104.66400000000002 162.848 106.968 162.848Q112.34400000000001 162.848 119.768 156.256Q127.19200000000001 149.664 132.69600000000003 139.61599999999999Q138.20000000000002 129.56799999999998 138.20000000000002 120.35199999999999Q138.20000000000002 111.136 135.89600000000002 106.144Q133.592 101.152 129.496 101.152Q125.4 101.152 118.808 108.512Q112.21600000000001 115.872 106.90400000000001 127.77600000000001Q101.59200000000001 139.68 101.59200000000001 150.56ZM107.096 178.336Q97.62400000000001 178.336 90.20000000000002 169.056Q82.77600000000001 159.776 82.77600000000001 150.56Q82.77600000000001 138.784 87.256 126.43199999999999Q91.736 114.08 98.45600000000002 105.056Q105.17600000000002 96.032 113.24000000000001 90.208Q121.304 84.384 128.08800000000002 84.384Q140.50400000000002 84.384 148.44 94.944Q156.376 105.504 156.376 118.68800000000002Q156.376 131.872 149.72000000000003 145.376Q143.06400000000002 158.88 131.35200000000003 168.608Q119.64000000000001 178.336 107.096 178.336Z M203.01600000000002 157.6Q206.216 157.6 206.216 161.952Q206.216 166.304 197.64000000000001 172.38400000000001Q189.06400000000002 178.464 179.72 178.464Q175.624 178.464 169.99200000000002 173.98399999999998Q164.36 169.504 164.36 164.896Q164.36 161.056 168.264 148.704Q172.168 136.352 173.57600000000002 131.744Q168.584 133.152 166.024 133.152Q163.464 133.152 160.648 129.632Q157.832 126.112 157.832 122.912Q157.832 118.816 177.672 116.0Q180.104 104.096 180.104 95.392Q180.104 91.55199999999999 183.94400000000002 91.55199999999999Q187.272 91.55199999999999 192.45600000000002 95.584Q197.64000000000001 99.616 197.64000000000001 103.52Q197.64000000000001 107.42399999999999 195.976 114.464Q202.12 114.208 205.32 114.208Q214.92000000000002 114.208 214.92000000000002 118.56Q214.92000000000002 121.376 209.352 123.36Q203.784 125.344 192.264 127.648Q191.24 131.10399999999998 189.256 137.31199999999998Q187.272 143.51999999999998 184.392 152.86399999999998Q181.512 162.208 181.512 162.784Q181.512 163.36 183.62400000000002 163.36Q185.73600000000002 163.36 193.67200000000003 160.48000000000002Q201.608 157.6 203.01600000000002 157.6Z M258.744 157.6Q261.944 157.6 261.944 161.952Q261.944 166.304 253.36800000000002 172.38400000000001Q244.79200000000003 178.464 235.448 178.464Q231.352 178.464 225.72000000000003 173.98399999999998Q220.08800000000002 169.504 220.08800000000002 164.896Q220.08800000000002 161.056 223.99200000000002 148.704Q227.89600000000002 136.352 229.30400000000003 131.744Q224.312 133.152 221.752 133.152Q219.192 133.152 216.376 129.632Q213.56 126.112 213.56 122.912Q213.56 118.816 233.4 116.0Q235.83200000000002 104.096 235.83200000000002 95.392Q235.83200000000002 91.55199999999999 239.67200000000003 91.55199999999999Q243.0 91.55199999999999 248.18400000000003 95.584Q253.36800000000002 99.616 253.36800000000002 103.52Q253.36800000000002 107.42399999999999 251.704 114.464Q257.848 114.208 261.048 114.208Q270.648 114.208 270.648 118.56Q270.648 121.376 265.08000000000004 123.36Q259.512 125.344 247.99200000000002 127.648Q246.96800000000002 131.10399999999998 244.984 137.31199999999998Q243.0 143.51999999999998 240.12 152.86399999999998Q237.24 162.208 237.24 162.784Q237.24 163.36 239.35200000000003 163.36Q241.46400000000003 163.36 249.40000000000003 160.48000000000002Q257.336 157.6 258.744 157.6Z M287.20799999999997 151.328Q286.056 154.784 286.056 158.24Q286.056 161.696 287.20799999999997 163.168Q288.36 164.64 292.968 164.64Q302.568 164.64 309.416 162.848Q316.264 161.056 316.52 161.056Q321.768 161.056 321.768 164.512Q321.768 169.504 313.51199999999994 173.98399999999998Q305.256 178.464 294.44 178.464Q283.624 178.464 277.096 171.68Q270.568 164.896 270.568 155.61599999999999Q270.568 146.336 276.008 136.224Q281.448 126.112 289.64 119.264Q297.832 112.416 305.96 112.416Q314.08799999999997 112.416 321.0 120.416Q327.912 128.416 327.912 136.352Q327.912 142.624 319.4 147.61599999999999Q310.888 152.608 301.928 152.608Q292.968 152.608 287.20799999999997 151.328ZM292.2 140.32Q293.352 140.448 295.528 140.448Q313.06399999999996 140.448 313.06399999999996 134.304Q313.06399999999996 133.024 310.376 130.59199999999998Q307.688 128.16 305.32 128.16Q302.952 128.16 299.24 131.55200000000002Q295.528 134.94400000000002 292.2 140.32Z M378.13599999999997 112.416Q384.792 112.416 389.84799999999996 118.368Q394.904 124.32 394.904 131.10399999999998Q394.904 141.984 391.384 153.824Q387.864 165.664 383.70399999999995 172.064Q379.544 178.464 375.256 178.464Q370.968 178.464 370.968 172.448Q370.968 167.84 375.192 153.888Q378.392 142.368 378.392 137.376Q378.392 132.38400000000001 377.11199999999997 132.38400000000001Q375.448 132.38400000000001 373.84799999999996 134.048Q372.248 135.712 371.224 136.992Q370.2 138.272 368.856 140.256Q367.512 142.24 366.552 143.84Q365.592 145.44 364.12 147.93599999999998Q362.648 150.432 361.752 152.03199999999998Q360.856 153.632 359.448 156.192Q347.544 178.464 340.76 178.464Q338.072 178.464 333.976 173.792Q329.88 169.12 329.88 166.944Q329.88 165.536 331.736 160.864Q333.592 156.192 334.424 153.696Q335.256 151.2 335.832 148.384Q336.408 145.56799999999998 336.79200000000003 142.30399999999997Q337.176 139.04 337.368 137.248Q337.56 135.456 337.816 131.61599999999999Q338.968 114.976 339.8 113.184Q340.632 111.392 341.656 111.392Q346.52 111.392 351.0 115.42399999999999Q355.48 119.45599999999999 355.48 122.78399999999999Q355.48 130.72 351.384 145.56799999999998Q359.704 130.976 366.552 121.696Q373.4 112.416 378.13599999999997 112.416Z M440.776 112.544Q445.64000000000004 112.544 450.37600000000003 118.304Q455.112 124.064 455.112 128.672Q455.112 131.744 452.42400000000004 131.744Q450.88800000000003 131.744 447.944 130.52800000000002Q445.0 129.312 441.992 129.312Q438.98400000000004 129.312 433.16 131.36Q427.336 133.40800000000002 427.336 136.736Q427.336 138.016 430.79200000000003 140.44799999999998Q434.24800000000005 142.88 438.34400000000005 145.44Q442.44000000000005 148.0 445.8960000000001 152.54399999999998Q449.35200000000003 157.088 449.35200000000003 162.39999999999998Q449.35200000000003 167.712 441.60800000000006 173.088Q433.86400000000003 178.464 423.432 178.464Q413.0 178.464 405.576 173.728Q398.15200000000004 168.992 398.15200000000004 164.0Q398.15200000000004 159.008 402.24800000000005 159.008Q403.91200000000003 159.008 406.216 160.288Q412.61600000000004 164.0 422.15200000000004 164.0Q431.68800000000005 164.0 431.68800000000005 161.44Q431.68800000000005 158.88 428.0400000000001 155.744Q424.39200000000005 152.608 420.10400000000004 149.92000000000002Q415.81600000000003 147.232 412.168 143.328Q408.52000000000004 139.424 408.52000000000004 135.712Q408.52000000000004 128.8 421.0640000000001 120.672Q433.60800000000006 112.544 440.776 112.544Z M474.36 151.328Q473.208 154.784 473.208 158.24Q473.208 161.696 474.36 163.168Q475.51200000000006 164.64 480.12000000000006 164.64Q489.72 164.64 496.56800000000004 162.848Q503.41600000000005 161.056 503.672 161.056Q508.92 161.056 508.92 164.512Q508.92 169.504 500.664 173.98399999999998Q492.408 178.464 481.59200000000004 178.464Q470.77600000000007 178.464 464.24800000000005 171.68Q457.72 164.896 457.72 155.61599999999999Q457.72 146.336 463.16 136.224Q468.6 126.112 476.79200000000003 119.264Q484.98400000000004 112.416 493.112 112.416Q501.24 112.416 508.15200000000004 120.416Q515.0640000000001 128.416 515.0640000000001 136.352Q515.0640000000001 142.624 506.552 147.61599999999999Q498.04 152.608 489.08000000000004 152.608Q480.12000000000006 152.608 474.36 151.328ZM479.35200000000003 140.32Q480.504 140.448 482.68000000000006 140.448Q500.216 140.448 500.216 134.304Q500.216 133.024 497.528 130.59199999999998Q494.84000000000003 128.16 492.47200000000004 128.16Q490.10400000000004 128.16 486.39200000000005 131.55200000000002Q482.68000000000006 134.94400000000002 479.35200000000003 140.32Z M525.224 134.048 524.456 119.584Q524.456 112.416 528.936 112.416Q531.4960000000001 112.416 533.9920000000001 114.336Q536.488 116.256 537.768 120.352Q542.12 116.512 547.3040000000001 114.144Q552.488 111.776 556.456 111.776Q565.8000000000001 111.776 565.8000000000001 116.256Q565.8000000000001 118.56 564.9680000000001 119.648Q564.1360000000001 120.73599999999999 563.6880000000001 121.24799999999999Q563.24 121.75999999999999 562.152 122.592Q561.0640000000001 123.424 560.552 123.80799999999999Q557.6080000000001 125.72800000000001 556.3280000000001 126.49600000000001Q550.568 130.07999999999998 546.472 135.136Q542.3760000000001 140.192 540.3280000000001 149.152Q536.8720000000001 163.872 533.6080000000001 171.104Q530.344 178.336 526.3120000000001 178.336Q522.2800000000001 178.336 520.296 174.496Q518.312 170.656 518.312 167.264Q518.312 163.872 520.808 157.08800000000002Q523.3040000000001 150.304 524.2640000000001 145.376Q525.224 140.448 525.224 134.048Z" fill="#f0f0ef"/>
<path d="M119.3896484375 229.7265625 117.55859375 235.0H113.2373046875L120.7666015625 214.3603515625H125.8642578125L133.3642578125 235.0H129.0869140625L127.255859375 229.7265625ZM123.3154296875 217.5390625Q123.1689453125 218.125 122.9052734375 218.9453125Q122.6416015625 219.765625 122.5244140625 220.1025390625L120.3564453125 226.474609375H126.2890625L124.0625 219.970703125Q123.857421875 219.3701171875 123.681640625 218.7548828125Q123.505859375 218.1396484375 123.3154296875 217.5390625Z M162.060546875 224.5263671875Q162.060546875 227.8369140625 160.77880859375 230.1806640625Q159.4970703125 232.5244140625 157.23388671875 233.76220703125Q154.970703125 235.0 152.01171875 235.0H143.662109375V214.3603515625H151.1328125Q156.34765625 214.3603515625 159.2041015625 216.98974609375Q162.060546875 219.619140625 162.060546875 224.5263671875ZM157.7099609375 224.5263671875Q157.7099609375 221.201171875 155.9814453125 219.45068359375Q154.2529296875 217.7001953125 151.044921875 217.7001953125H147.9833984375V231.66015625H151.6455078125Q153.505859375 231.66015625 154.86083984375 230.78857421875Q156.2158203125 229.9169921875 156.962890625 228.3203125Q157.7099609375 226.7236328125 157.7099609375 224.5263671875Z M190.625 214.3603515625 183.037109375 235.0H178.6572265625L171.025390625 214.3603515625H175.537109375L179.78515625 227.6171875Q179.990234375 228.26171875 180.26123046875 229.23583984375Q180.5322265625 230.2099609375 180.869140625 231.513671875Q181.3525390625 229.6826171875 181.56494140625 228.8623046875Q181.77734375 228.0419921875 181.923828125 227.6171875L186.1572265625 214.3603515625Z M217.16796875 231.66015625V235.0H200.3369140625V214.3603515625H216.5673828125V217.7001953125H204.658203125V222.8857421875H215.673828125V226.2255859375H204.658203125V231.66015625Z M231.6845703125 222.8271484375V235.0H227.8466796875V214.3603515625H232.783203125L241.9091796875 230.3857421875Q241.6455078125 228.1591796875 241.6455078125 226.357421875V214.3603515625H245.4833984375V235.0H240.4150390625L231.4208984375 219.1064453125Q231.552734375 220.263671875 231.61865234375 221.19384765625Q231.6845703125 222.1240234375 231.6845703125 222.8271484375Z M266.328125 217.7001953125V235.0H262.0068359375V217.7001953125H255.341796875V214.3603515625H273.0078125V217.7001953125Z M299.66796875 229.052734375Q299.66796875 232.0849609375 297.41943359375 233.68896484375Q295.1708984375 235.29296875 290.8203125 235.29296875Q282.9833984375 235.29296875 281.6943359375 229.6240234375L285.869140625 228.935546875Q286.2939453125 230.576171875 287.5244140625 231.31591796875Q288.7548828125 232.0556640625 290.9375 232.0556640625Q293.2080078125 232.0556640625 294.3359375 231.3671875Q295.4638671875 230.6787109375 295.4638671875 229.3017578125Q295.4638671875 228.4228515625 294.951171875 227.8515625Q294.4384765625 227.2802734375 293.486328125 226.8994140625Q293.017578125 226.708984375 292.109375 226.48193359375Q291.201171875 226.2548828125 289.853515625 225.9765625Q288.30078125 225.6103515625 287.421875 225.35400390625Q286.54296875 225.09765625 286.015625 224.85595703125Q285.48828125 224.6142578125 284.990234375 224.3212890625Q283.8916015625 223.662109375 283.2763671875 222.5634765625Q282.6611328125 221.46484375 282.6611328125 219.82421875Q282.6611328125 217.0263671875 284.76318359375 215.53955078125Q286.865234375 214.052734375 290.87890625 214.052734375Q294.716796875 214.052734375 296.64306640625 215.25390625Q298.5693359375 216.455078125 299.1259765625 219.2236328125L294.9365234375 219.794921875Q294.6142578125 218.4619140625 293.62548828125 217.7880859375Q292.63671875 217.1142578125 290.791015625 217.1142578125Q288.828125 217.1142578125 287.8466796875 217.7294921875Q286.865234375 218.3447265625 286.865234375 219.5751953125Q286.865234375 220.380859375 287.28271484375 220.8935546875Q287.7001953125 221.40625 288.5205078125 221.7724609375Q289.296875 222.1240234375 291.845703125 222.666015625Q293.3251953125 222.98828125 294.39453125 223.27392578125Q295.4638671875 223.5595703125 296.1083984375 223.8232421875Q296.7529296875 224.1015625 297.25830078125 224.4091796875Q297.763671875 224.716796875 298.1298828125 225.068359375Q298.876953125 225.7861328125 299.2724609375 226.77490234375Q299.66796875 227.763671875 299.66796875 229.052734375Z M314.66796875 227.470703125V235.0H310.3466796875V214.3603515625H314.66796875V223.720703125L323.9697265625 214.3603515625H329.0087890625L320.1904296875 223.0908203125L329.7265625 235.0H324.62890625L317.216796875 225.5224609375Z M344.404296875 229.7265625 342.5732421875 235.0H338.251953125L345.78125 214.3603515625H350.87890625L358.37890625 235.0H354.1015625L352.2705078125 229.7265625ZM348.330078125 217.5390625Q348.18359375 218.125 347.919921875 218.9453125Q347.65625 219.765625 347.5390625 220.1025390625L345.37109375 226.474609375H351.3037109375L349.0771484375 219.970703125Q348.8720703125 219.3701171875 348.6962890625 218.7548828125Q348.5205078125 218.1396484375 348.330078125 217.5390625Z M384.072265625 231.66015625V235.0H368.6767578125V214.3603515625H372.998046875V231.66015625Z M411.3330078125 231.66015625V235.0H394.501953125V214.3603515625H410.732421875V217.7001953125H398.8232421875V222.8857421875H409.8388671875V226.2255859375H398.8232421875V231.66015625Z M425.849609375 222.8271484375V235.0H422.01171875V214.3603515625H426.9482421875L436.07421875 230.3857421875Q435.810546875 228.1591796875 435.810546875 226.357421875V214.3603515625H439.6484375V235.0H434.580078125L425.5859375 219.1064453125Q425.7177734375 220.263671875 425.78369140625 221.19384765625Q425.849609375 222.1240234375 425.849609375 222.8271484375Z M469.5751953125 224.5263671875Q469.5751953125 227.8369140625 468.29345703125 230.1806640625Q467.01171875 232.5244140625 464.74853515625 233.76220703125Q462.4853515625 235.0 459.5263671875 235.0H451.1767578125V214.3603515625H458.6474609375Q463.8623046875 214.3603515625 466.71875 216.98974609375Q469.5751953125 219.619140625 469.5751953125 224.5263671875ZM465.224609375 224.5263671875Q465.224609375 221.201171875 463.49609375 219.45068359375Q461.767578125 217.7001953125 458.5595703125 217.7001953125H455.498046875V231.66015625H459.16015625Q461.0205078125 231.66015625 462.37548828125 230.78857421875Q463.73046875 229.9169921875 464.4775390625 228.3203125Q465.224609375 226.7236328125 465.224609375 224.5263671875Z M497.1728515625 231.66015625V235.0H480.341796875V214.3603515625H496.572265625V217.7001953125H484.6630859375V222.8857421875H495.6787109375V226.2255859375H484.6630859375V231.66015625Z M512.1728515625 227.1630859375V235.0H507.8515625V214.3603515625H518.1640625Q521.85546875 214.3603515625 523.8623046875 215.94970703125Q525.869140625 217.5390625 525.869140625 220.5126953125Q525.869140625 222.6806640625 524.638671875 224.25537109375Q523.408203125 225.830078125 521.3134765625 226.328125L526.89453125 235.0H522.03125L517.2412109375 227.1630859375ZM521.5185546875 220.6884765625Q521.5185546875 219.208984375 520.56640625 218.4619140625Q519.6142578125 217.71484375 517.7099609375 217.71484375H512.1728515625V223.80859375H517.8271484375Q519.6435546875 223.80859375 520.5810546875 222.98828125Q521.5185546875 222.16796875 521.5185546875 220.6884765625Z" fill="#f0a340"/>
<line x1="90.0" y1="258" x2="550.0" y2="258" stroke="#f0f0ef" stroke-opacity="0.45" stroke-width="2.5" stroke-dasharray="8 7"/>
<path d="M76.21,63.37 L78.37,74.88 L89.59,78.22 L79.31,83.83 L79.59,95.53 L71.09,87.48 L60.05,91.38 L65.07,80.80 L57.96,71.50 L69.57,73.01 Z" fill="#f0a340"/>
<path d="M103.43,47.09 L106.58,52.42 L112.77,52.05 L108.67,56.70 L110.93,62.47 L105.24,60.01 L100.45,63.95 L101.04,57.78 L95.82,54.44 L101.87,53.09 Z" fill="#29a9dd"/>
</svg>
